<?xml version="1.0" standalone="no"?>
<!DOCTYPE svg PUBLIC "-//W3C//DTD SVG 1.1//EN" "http://www.w3.org/Graphics/SVG/1.1/DTD/svg11.dtd">

<svg width="570" height="260" version="1.1" xmlns="http://www.w3.org/2000/svg">
	<ellipse stroke="black" stroke-width="2" fill='#72e982' cx="80.5" cy="122.5" rx="30" ry="30"/>
	<text x="69.5" y="128.5" font-family="Avenir Next" font-size="20">q&#8321;</text>
	<ellipse stroke="black" stroke-width="2" fill='#72e982' cx="217.5" cy="122.5" rx="30" ry="30"/>
	<text x="206.5" y="128.5" font-family="Avenir Next" font-size="20">q&#8322;</text>
	<ellipse stroke="black" stroke-width="2" fill='#72e982' cx="355.5" cy="122.5" rx="30" ry="30"/>
	<text x="344.5" y="128.5" font-family="Avenir Next" font-size="20">q&#8323;</text>
	<ellipse stroke="black" stroke-width="2" fill='#72e982' cx="502.5" cy="122.5" rx="30" ry="30"/>
	<text x="491.5" y="128.5" font-family="Avenir Next" font-size="20">q&#8324;</text>
	<ellipse stroke="black" stroke-width="2" fill="none" cx="502.5" cy="122.5" rx="24" ry="24"/>
	<polygon stroke="black" stroke-width="2" points="8.5,157.5 53.519,135.616"/>
	<polygon fill="black" stroke-width="2" points="53.519,135.616 44.138,134.616 48.51,143.61"/>
	<path stroke="black" stroke-width="2" fill="none" d="M 67.275,95.703 A 22.5,22.5 0 1 1 93.725,95.703"/>
	<text x="66.5" y="46.5" font-family="Avenir Next" font-size="20">b,c</text>
	<polygon fill="black" stroke-width="2" points="93.725,95.703 102.473,92.17 94.382,86.292"/>
	<path stroke="black" stroke-width="2" fill="none" d="M 108.01,110.68 A 139.479,139.479 0 0 1 189.99,110.68"/>
	<polygon fill="black" stroke-width="2" points="189.99,110.68 183.812,103.549 180.874,113.108"/>
	<text x="143.5" y="95.5" font-family="Avenir Next" font-size="20">a</text>
	<path stroke="black" stroke-width="2" fill="none" d="M 189.746,133.749 A 146.189,146.189 0 0 1 108.254,133.749"/>
	<polygon fill="black" stroke-width="2" points="108.254,133.749 114.544,140.78 117.331,131.177"/>
	<text x="135.5" y="160.5" font-family="Avenir Next" font-size="20">b,c</text>
	<polygon stroke="black" stroke-width="2" points="247.5,122.5 325.5,122.5"/>
	<polygon fill="black" stroke-width="2" points="325.5,122.5 317.5,117.5 317.5,127.5"/>
	<text x="281.5" y="113.5" font-family="Avenir Next" font-size="20">a</text>
	<path stroke="black" stroke-width="2" fill="none" d="M 342.275,95.703 A 22.5,22.5 0 1 1 368.725,95.703"/>
	<text x="350.5" y="46.5" font-family="Avenir Next" font-size="20">a</text>
	<polygon fill="black" stroke-width="2" points="368.725,95.703 377.473,92.17 369.382,86.292"/>
	<path stroke="black" stroke-width="2" fill="none" d="M 489.275,95.703 A 22.5,22.5 0 1 1 515.725,95.703"/>
	<text x="480.5" y="46.5" font-family="Avenir Next" font-size="20">a,b,c</text>
	<polygon fill="black" stroke-width="2" points="515.725,95.703 524.473,92.17 516.382,86.292"/>
	<polygon stroke="black" stroke-width="2" points="385.5,122.5 472.5,122.5"/>
	<polygon fill="black" stroke-width="2" points="472.5,122.5 464.5,117.5 464.5,127.5"/>
	<text x="422.5" y="113.5" font-family="Avenir Next" font-size="20">b</text>
	<path stroke="black" stroke-width="2" fill="none" d="M 339.373,147.741 A 154.329,154.329 0 0 1 96.627,147.741"/>
	<polygon fill="black" stroke-width="2" points="96.627,147.741 97.636,157.121 105.5,150.944"/>
	<text x="213.5" y="227.5" font-family="Avenir Next" font-size="20">c</text>
</svg>
