<?xml version="1.0" standalone="no"?>
<!DOCTYPE svg PUBLIC "-//W3C//DTD SVG 1.1//EN" "http://www.w3.org/Graphics/SVG/1.1/DTD/svg11.dtd">

<svg width="440" height="280" version="1.1" xmlns="http://www.w3.org/2000/svg">
	<ellipse stroke="black" stroke-width="2" fill='#72e982' cx="80.5" cy="91.5" rx="30" ry="30"/>
	<text x="69.5" y="97.5" font-family="Avenir Next" font-size="20">q&#8321;</text>
	<ellipse stroke="black" stroke-width="2" fill='#72e982' cx="220.5" cy="91.5" rx="30" ry="30"/>
	<text x="209.5" y="97.5" font-family="Avenir Next" font-size="20">q&#8322;</text>
	<ellipse stroke="black" stroke-width="2" fill='#72e982' cx="363.5" cy="91.5" rx="30" ry="30"/>
	<text x="352.5" y="97.5" font-family="Avenir Next" font-size="20">q&#8323;</text>
	<ellipse stroke="black" stroke-width="2" fill="none" cx="363.5" cy="91.5" rx="24" ry="24"/>
	<ellipse stroke="black" stroke-width="2" fill='#72e982' cx="220.5" cy="221.5" rx="30" ry="30"/>
	<text x="209.5" y="227.5" font-family="Avenir Next" font-size="20">q&#8324;</text>
	<polygon stroke="black" stroke-width="2" points="6.5,120.5 52.568,102.446"/>
	<polygon fill="black" stroke-width="2" points="52.568,102.446 43.295,100.71 46.944,110.02"/>
	<polygon stroke="black" stroke-width="2" points="110.5,91.5 190.5,91.5"/>
	<polygon fill="black" stroke-width="2" points="190.5,91.5 182.5,86.5 182.5,96.5"/>
	<text x="145.5" y="112.5" font-family="Avenir Next" font-size="20">x</text>
	<polygon stroke="black" stroke-width="2" points="102.484,111.914 198.516,201.086"/>
	<polygon fill="black" stroke-width="2" points="198.516,201.086 196.056,191.979 189.252,199.307"/>
	<text x="135.5" y="177.5" font-family="Avenir Next" font-size="20">y</text>
	<path stroke="black" stroke-width="2" fill="none" d="M 207.275,64.703 A 22.5,22.5 0 1 1 233.725,64.703"/>
	<text x="215.5" y="15.5" font-family="Avenir Next" font-size="20">x</text>
	<polygon fill="black" stroke-width="2" points="233.725,64.703 242.473,61.17 234.382,55.292"/>
	<path stroke="black" stroke-width="2" fill="none" d="M 350.275,64.703 A 22.5,22.5 0 1 1 376.725,64.703"/>
	<text x="358.5" y="15.5" font-family="Avenir Next" font-size="20">y</text>
	<polygon fill="black" stroke-width="2" points="376.725,64.703 385.473,61.17 377.382,55.292"/>
	<path stroke="black" stroke-width="2" fill="none" d="M 245.811,75.565 A 111.456,111.456 0 0 1 338.189,75.565"/>
	<polygon fill="black" stroke-width="2" points="338.189,75.565 332.98,67.699 328.836,76.8"/>
	<text x="287.5" y="56.5" font-family="Avenir Next" font-size="20">y</text>
	<path stroke="black" stroke-width="2" fill="none" d="M 336.77,104.974 A 130.02,130.02 0 0 1 247.23,104.974"/>
	<polygon fill="black" stroke-width="2" points="247.23,104.974 253.019,112.422 256.462,103.034"/>
	<text x="287.5" y="133.5" font-family="Avenir Next" font-size="20">x</text>
	<path stroke="black" stroke-width="2" fill="none" d="M 234.288,194.988 A 22.5,22.5 0 1 1 249.93,216.318"/>
	<text x="280.5" y="173.5" font-family="Avenir Next" font-size="20">x,y</text>
	<polygon fill="black" stroke-width="2" points="249.93,216.318 257.952,221.283 257.908,211.283"/>
</svg>
