<?xml version="1.0" standalone="no"?>
<!DOCTYPE svg PUBLIC "-//W3C//DTD SVG 1.1//EN" "http://www.w3.org/Graphics/SVG/1.1/DTD/svg11.dtd">

<svg width="570" height="150" version="1.1" xmlns="http://www.w3.org/2000/svg">
	<ellipse stroke="black" stroke-width="2" fill='#72e982' cx="77.5" cy="97.5" rx="30" ry="30"/>
	<text x="66.5" y="103.5" font-family="Avenir Next" font-size="20">q&#8321;</text>
	<ellipse stroke="black" stroke-width="2" fill='#72e982' cx="214.5" cy="97.5" rx="30" ry="30"/>
	<text x="203.5" y="103.5" font-family="Avenir Next" font-size="20">q&#8322;</text>
	<ellipse stroke="black" stroke-width="2" fill='#72e982' cx="356.5" cy="97.5" rx="30" ry="30"/>
	<text x="345.5" y="103.5" font-family="Avenir Next" font-size="20">q&#8323;</text>
	<ellipse stroke="black" stroke-width="2" fill='#72e982' cx="494.5" cy="97.5" rx="30" ry="30"/>
	<text x="483.5" y="103.5" font-family="Avenir Next" font-size="20">q&#8324;</text>
	<ellipse stroke="black" stroke-width="2" fill="none" cx="494.5" cy="97.5" rx="24" ry="24"/>
	<polygon stroke="black" stroke-width="2" points="-1.5,121.5 48.795,106.22"/>
	<polygon fill="black" stroke-width="2" points="48.795,106.22 39.687,103.762 42.594,113.33"/>
	<polygon stroke="black" stroke-width="2" points="107.5,97.5 184.5,97.5"/>
	<polygon fill="black" stroke-width="2" points="184.5,97.5 176.5,92.5 176.5,102.5"/>
	<text x="140.5" y="88.5" font-family="Avenir Next" font-size="20">a</text>
	<polygon stroke="black" stroke-width="2" points="244.5,97.5 326.5,97.5"/>
	<polygon fill="black" stroke-width="2" points="326.5,97.5 318.5,92.5 318.5,102.5"/>
	<text x="280.5" y="88.5" font-family="Avenir Next" font-size="20">a</text>
	<polygon stroke="black" stroke-width="2" points="386.5,97.5 464.5,97.5"/>
	<polygon fill="black" stroke-width="2" points="464.5,97.5 456.5,92.5 456.5,102.5"/>
	<text x="419.5" y="88.5" font-family="Avenir Next" font-size="20">b</text>
	<path stroke="black" stroke-width="2" fill="none" d="M 481.275,70.703 A 22.5,22.5 0 1 1 507.725,70.703"/>
	<text x="472.5" y="20.5" font-family="Avenir Next" font-size="20">a,b,c</text>
	<polygon fill="black" stroke-width="2" points="507.725,70.703 516.473,67.17 508.382,61.292"/>
	<path stroke="black" stroke-width="2" fill="none" d="M 64.275,70.703 A 22.5,22.5 0 1 1 90.725,70.703"/>
	<text x="55.5" y="20.5" font-family="Avenir Next" font-size="20">a,b,c</text>
	<polygon fill="black" stroke-width="2" points="90.725,70.703 99.473,67.17 91.382,61.292"/>
</svg>
