<?xml version="1.0" standalone="no"?>
<!DOCTYPE svg PUBLIC "-//W3C//DTD SVG 1.1//EN" "http://www.w3.org/Graphics/SVG/1.1/DTD/svg11.dtd">

<svg width="690" height="200" version="1.1" xmlns="http://www.w3.org/2000/svg">
	<ellipse stroke="black" stroke-width="2" fill='#72e982' cx="77.5" cy="100.5" rx="30" ry="30"/>
	<text x="66.5" y="106.5" font-family="Avenir Next" font-size="20">q&#8321;</text>
	<ellipse stroke="black" stroke-width="2" fill="none" cx="77.5" cy="100.5" rx="24" ry="24"/>
	<ellipse stroke="black" stroke-width="2" fill='#72e982' cx="213.5" cy="100.5" rx="30" ry="30"/>
	<text x="202.5" y="106.5" font-family="Avenir Next" font-size="20">q&#8322;</text>
	<ellipse stroke="black" stroke-width="2" fill="none" cx="213.5" cy="100.5" rx="24" ry="24"/>
	<ellipse stroke="black" stroke-width="2" fill='#72e982' cx="347.5" cy="100.5" rx="30" ry="30"/>
	<text x="336.5" y="106.5" font-family="Avenir Next" font-size="20">q&#8323;</text>
	<ellipse stroke="black" stroke-width="2" fill="none" cx="347.5" cy="100.5" rx="24" ry="24"/>
	<ellipse stroke="black" stroke-width="2" fill='#72e982' cx="480.5" cy="100.5" rx="30" ry="30"/>
	<text x="469.5" y="106.5" font-family="Avenir Next" font-size="20">q&#8324;</text>
	<ellipse stroke="black" stroke-width="2" fill="none" cx="480.5" cy="100.5" rx="24" ry="24"/>
	<ellipse stroke="black" stroke-width="2" fill='#72e982' cx="613.5" cy="100.5" rx="30" ry="30"/>
	<text x="602.5" y="106.5" font-family="Avenir Next" font-size="20">q&#8325;</text>
	<polygon stroke="black" stroke-width="2" points="4.5,135.5 50.449,113.47"/>
	<polygon fill="black" stroke-width="2" points="50.449,113.47 41.073,112.42 45.396,121.437"/>
	<path stroke="black" stroke-width="2" fill="none" d="M 64.275,73.703 A 22.5,22.5 0 1 1 90.725,73.703"/>
	<text x="71.5" y="24.5" font-family="Avenir Next" font-size="20">0</text>
	<polygon fill="black" stroke-width="2" points="90.725,73.703 99.473,70.17 91.382,64.292"/>
	<polygon stroke="black" stroke-width="2" points="107.5,100.5 183.5,100.5"/>
	<polygon fill="black" stroke-width="2" points="183.5,100.5 175.5,95.5 175.5,105.5"/>
	<text x="139.5" y="91.5" font-family="Avenir Next" font-size="20">1</text>
	<path stroke="black" stroke-width="2" fill="none" d="M 200.275,73.703 A 22.5,22.5 0 1 1 226.725,73.703"/>
	<text x="207.5" y="24.5" font-family="Avenir Next" font-size="20">1</text>
	<polygon fill="black" stroke-width="2" points="226.725,73.703 235.473,70.17 227.382,64.292"/>
	<polygon stroke="black" stroke-width="2" points="243.5,100.5 317.5,100.5"/>
	<polygon fill="black" stroke-width="2" points="317.5,100.5 309.5,95.5 309.5,105.5"/>
	<text x="274.5" y="91.5" font-family="Avenir Next" font-size="20">0</text>
	<path stroke="black" stroke-width="2" fill="none" d="M 325.294,120.622 A 185.12,185.12 0 0 1 99.706,120.622"/>
	<polygon fill="black" stroke-width="2" points="99.706,120.622 103.003,129.462 109.096,121.532"/>
	<text x="206.5" y="179.5" font-family="Avenir Next" font-size="20">0</text>
	<polygon stroke="black" stroke-width="2" points="377.5,100.5 450.5,100.5"/>
	<polygon fill="black" stroke-width="2" points="450.5,100.5 442.5,95.5 442.5,105.5"/>
	<text x="408.5" y="91.5" font-family="Avenir Next" font-size="20">1</text>
	<path stroke="black" stroke-width="2" fill="none" d="M 235.368,80.013 A 179.896,179.896 0 0 1 458.632,80.013"/>
	<polygon fill="black" stroke-width="2" points="235.368,80.013 244.744,78.97 238.538,71.128"/>
	<text x="341.5" y="32.5" font-family="Avenir Next" font-size="20">1</text>
	<polygon stroke="black" stroke-width="2" points="510.5,100.5 583.5,100.5"/>
	<polygon fill="black" stroke-width="2" points="583.5,100.5 575.5,95.5 575.5,105.5"/>
	<text x="541.5" y="91.5" font-family="Avenir Next" font-size="20">0</text>
	<path stroke="black" stroke-width="2" fill="none" d="M 600.275,73.703 A 22.5,22.5 0 1 1 626.725,73.703"/>
	<text x="599.5" y="24.5" font-family="Avenir Next" font-size="20">0,1</text>
	<polygon fill="black" stroke-width="2" points="626.725,73.703 635.473,70.17 627.382,64.292"/>
</svg>
