<?xml version="1.0" standalone="no"?>
<!DOCTYPE svg PUBLIC "-//W3C//DTD SVG 1.1//EN" "http://www.w3.org/Graphics/SVG/1.1/DTD/svg11.dtd">

<svg width="290" height="130" version="1.1" xmlns="http://www.w3.org/2000/svg">
	<ellipse stroke="black" stroke-width="2" fill='#72e982' cx="82.5" cy="60.5" rx="30" ry="30"/>
	<text x="71.5" y="66.5" font-family="Avenir Next" font-size="20">q&#8321;</text>
	<ellipse stroke="black" stroke-width="2" fill="none" cx="82.5" cy="60.5" rx="24" ry="24"/>
	<ellipse stroke="black" stroke-width="2" fill='#72e982' cx="228.5" cy="60.5" rx="30" ry="30"/>
	<text x="217.5" y="66.5" font-family="Avenir Next" font-size="20">q&#8322;</text>
	<polygon stroke="black" stroke-width="2" points="7.5,86.5 54.155,70.326"/>
	<polygon fill="black" stroke-width="2" points="54.155,70.326 44.959,68.222 48.234,77.671"/>
	<path stroke="black" stroke-width="2" fill="none" d="M 104.68,40.49 A 93.623,93.623 0 0 1 206.32,40.49"/>
	<polygon fill="black" stroke-width="2" points="206.32,40.49 202.315,31.949 196.887,40.347"/>
	<text x="150.5" y="16.5" font-family="Avenir Next" font-size="20">a</text>
	<path stroke="black" stroke-width="2" fill="none" d="M 207.452,81.679 A 89.338,89.338 0 0 1 103.548,81.679"/>
	<polygon fill="black" stroke-width="2" points="103.548,81.679 107.149,90.399 112.964,82.264"/>
	<text x="149.5" y="119.5" font-family="Avenir Next" font-size="20">b</text>
</svg>