<?xml version="1.0" standalone="no"?>
<!DOCTYPE svg PUBLIC "-//W3C//DTD SVG 1.1//EN" "http://www.w3.org/Graphics/SVG/1.1/DTD/svg11.dtd">

<svg width="340" height="220" version="1.1" xmlns="http://www.w3.org/2000/svg">
	<ellipse stroke="black" stroke-width="2" fill='#72e982' cx="84.5" cy="43.5" rx="30" ry="30"/>
	<text x="73.5" y="49.5" font-family="Avenir Next" font-size="20">q&#8321;</text>
	<ellipse stroke="black" stroke-width="2" fill='#72e982' cx="277.5" cy="43.5" rx="30" ry="30"/>
	<text x="266.5" y="49.5" font-family="Avenir Next" font-size="20">q&#8322;</text>
	<ellipse stroke="black" stroke-width="2" fill="none" cx="277.5" cy="43.5" rx="24" ry="24"/>
	<ellipse stroke="black" stroke-width="2" fill='#72e982' cx="180.5" cy="176.5" rx="30" ry="30"/>
	<text x="169.5" y="182.5" font-family="Avenir Next" font-size="20">q&#8323;</text>
	<polygon stroke="black" stroke-width="2" points="5.5,67.5 55.795,52.22"/>
	<polygon fill="black" stroke-width="2" points="55.795,52.22 46.687,49.762 49.594,59.33"/>
	<path stroke="black" stroke-width="2" fill="none" d="M 112.745,33.445 A 246.089,246.089 0 0 1 249.255,33.445"/>
	<polygon fill="black" stroke-width="2" points="249.255,33.445 242.956,26.422 240.182,36.03"/>
	<text x="176.5" y="14.5" font-family="Avenir Next" font-size="20">&#949;</text>
	<path stroke="black" stroke-width="2" fill="none" d="M 248.82,52.251 A 281.915,281.915 0 0 1 113.18,52.251"/>
	<polygon fill="black" stroke-width="2" points="113.18,52.251 119.743,59.029 122.148,49.323"/>
	<text x="175.5" y="81.5" font-family="Avenir Next" font-size="20">a</text>
	<polygon stroke="black" stroke-width="2" points="102.058,67.825 162.942,152.175"/>
	<polygon fill="black" stroke-width="2" points="162.942,152.175 162.314,142.762 154.206,148.614"/>
	<text x="115.5" y="129.5" font-family="Avenir Next" font-size="20">a</text>
	<polygon stroke="black" stroke-width="2" points="198.178,152.262 259.822,67.738"/>
	<polygon fill="black" stroke-width="2" points="259.822,67.738 251.069,71.256 259.148,77.148"/>
	<text x="234.5" y="129.5" font-family="Avenir Next" font-size="20">a,b</text>
	<path stroke="black" stroke-width="2" fill="none" d="M 207.297,163.275 A 22.5,22.5 0 1 1 207.297,189.725"/>
	<text x="253.5" y="182.5" font-family="Avenir Next" font-size="20">b</text>
	<polygon fill="black" stroke-width="2" points="207.297,189.725 210.83,198.473 216.708,190.382"/>
</svg>
