<?xml version="1.0" standalone="no"?>
<!DOCTYPE svg PUBLIC "-//W3C//DTD SVG 1.1//EN" "http://www.w3.org/Graphics/SVG/1.1/DTD/svg11.dtd">

<svg width="680" height="90" version="1.1" xmlns="http://www.w3.org/2000/svg">
	<ellipse stroke="black" stroke-width="2" fill='#72e982' cx="84.5" cy="39.5" rx="30" ry="30"/>
	<text x="73.5" y="45.5" font-family="Avenir Next" font-size="20">q&#8321;</text>
	<ellipse stroke="black" stroke-width="2" fill='#72e982' cx="211.5" cy="39.5" rx="30" ry="30"/>
	<text x="200.5" y="45.5" font-family="Avenir Next" font-size="20">q&#8322;</text>
	<ellipse stroke="black" stroke-width="2" fill='#72e982' cx="345.5" cy="39.5" rx="30" ry="30"/>
	<text x="334.5" y="45.5" font-family="Avenir Next" font-size="20">q&#8323;</text>
	<ellipse stroke="black" stroke-width="2" fill='#72e982' cx="479.5" cy="39.5" rx="30" ry="30"/>
	<text x="468.5" y="45.5" font-family="Avenir Next" font-size="20">q&#8324;</text>
	<ellipse stroke="black" stroke-width="2" fill="none" cx="479.5" cy="39.5" rx="24" ry="24"/>
	<ellipse stroke="black" stroke-width="2" fill='#72e982' cx="612.5" cy="39.5" rx="30" ry="30"/>
	<text x="601.5" y="45.5" font-family="Avenir Next" font-size="20">q&#8325;</text>
	<ellipse stroke="black" stroke-width="2" fill="none" cx="612.5" cy="39.5" rx="24" ry="24"/>
	<polygon stroke="black" stroke-width="2" points="5.5,63.5 55.795,48.22"/>
	<polygon fill="black" stroke-width="2" points="55.795,48.22 46.687,45.762 49.594,55.33"/>
	<polygon stroke="black" stroke-width="2" points="114.5,39.5 181.5,39.5"/>
	<polygon fill="black" stroke-width="2" points="181.5,39.5 173.5,34.5 173.5,44.5"/>
	<text x="143.5" y="30.5" font-family="Avenir Next" font-size="20">c</text>
	<polygon stroke="black" stroke-width="2" points="241.5,39.5 315.5,39.5"/>
	<polygon fill="black" stroke-width="2" points="315.5,39.5 307.5,34.5 307.5,44.5"/>
	<text x="273.5" y="30.5" font-family="Avenir Next" font-size="20">a</text>
	<polygon stroke="black" stroke-width="2" points="375.5,39.5 449.5,39.5"/>
	<polygon fill="black" stroke-width="2" points="449.5,39.5 441.5,34.5 441.5,44.5"/>
	<text x="409.5" y="30.5" font-family="Avenir Next" font-size="20">t</text>
	<polygon stroke="black" stroke-width="2" points="509.5,39.5 582.5,39.5"/>
	<polygon fill="black" stroke-width="2" points="582.5,39.5 574.5,34.5 574.5,44.5"/>
	<text x="541.5" y="30.5" font-family="Avenir Next" font-size="20">s</text>
</svg>
